<svg width="165" height="64" viewBox="0 0 165 64" fill="none" xmlns="http://www.w3.org/2000/svg">
<path d="M19.4909 29.0482C17.153 29.0482 14.8398 29.0482 12.5046 29.0482C12.5046 28.947 12.5046 28.8571 12.5046 28.7672C12.5043 22.8899 12.5051 17.0126 12.5024 11.1353C12.502 10.2783 12.4347 9.42683 12.1504 8.60971C11.8721 7.80976 11.4007 7.18666 10.5356 6.96014C9.97025 6.8121 9.4015 6.81561 8.84417 6.99614C8.01269 7.26547 7.58452 7.9075 7.32525 8.69213C7.09033 9.40304 7.00926 10.1405 7.00806 10.8833C6.99841 16.831 6.99625 22.7787 6.99182 28.7264C6.99174 28.825 6.99181 28.9235 6.99181 29.0404C4.66898 29.0404 2.35648 29.0404 0.00996049 29.0404C0.00996049 28.9702 0.00996521 28.8958 0.00995997 28.8215C0.00954073 22.8877 -0.000634394 16.9538 0.0141831 11.0201C0.01913 9.03905 0.343975 7.10856 1.2296 5.31323C2.6577 2.41818 4.98307 0.699222 8.15881 0.152876C9.91818 -0.149801 11.6493 -0.0152864 13.3152 0.666361C14.3531 1.09106 15.2383 1.72955 15.9328 2.61918C15.9501 2.64142 15.9669 2.66411 15.9559 2.64965C16.395 2.24915 16.7997 1.82222 17.2615 1.47039C18.3508 0.640631 19.6158 0.230159 20.9619 0.0802598C23.1653 -0.165102 25.2539 0.211912 27.1742 1.34976C29.2497 2.57958 30.5688 4.41014 31.3162 6.67704C31.7483 7.98756 31.9656 9.33863 31.9689 10.715C31.9838 16.7686 31.9828 22.8222 31.9873 28.8758C31.9874 28.9246 31.9833 28.9734 31.9804 29.0413C29.6629 29.0413 27.3507 29.0413 25.0017 29.0413C25.0017 28.9557 25.0017 28.8606 25.0017 28.7655C25.0013 22.9165 25.0031 17.0674 24.9981 11.2184C24.9974 10.4059 24.9571 9.59081 24.7004 8.81201C24.5848 8.46103 24.432 8.10837 24.2261 7.80376C23.7003 7.02575 22.9038 6.80724 22.0173 6.87321C20.8107 6.96299 20.0891 7.62748 19.7472 8.9168C19.5576 9.63177 19.4931 10.3617 19.4928 11.0979C19.4908 16.9823 19.4913 22.8666 19.4909 28.751C19.4909 28.8423 19.4909 28.9336 19.4909 29.0482Z" fill="#141414"/>
<path d="M65.9938 15.3323C65.9477 18.6558 64.5441 22.2147 61.6018 25.1175C59.526 27.1655 57.0309 28.4479 54.1606 28.9734C51.0094 29.5502 47.971 29.1733 45.089 27.7634C42.2465 26.3729 40.1008 24.2462 38.6409 21.4389C37.426 19.1026 36.8881 16.6049 37.0023 13.9807C37.1632 10.2818 38.4902 7.05457 41.0693 4.38029C43.3582 2.00684 46.157 0.59974 49.4234 0.149277C52.3973 -0.26085 55.2499 0.16867 57.9453 1.50529C60.731 2.88673 62.8579 4.962 64.3182 7.70766C65.453 9.84133 66.0004 12.125 65.9938 15.3323ZM51.2582 23.3222C51.3046 23.1947 51.3308 23.1312 51.3511 23.0658C51.9887 21.005 52.6271 18.9444 53.2599 16.8821C53.3037 16.7391 53.37 16.6638 53.5178 16.6188C54.8261 16.2204 56.1318 15.8132 57.438 15.4079C58.2648 15.1513 59.0911 14.8934 59.9554 14.6244C59.849 14.5835 59.7798 14.5522 59.7077 14.5298C57.6476 13.8903 55.5878 13.2493 53.5253 12.6174C53.3679 12.5692 53.3033 12.4896 53.2577 12.3411C52.6246 10.279 51.9855 8.21871 51.3472 6.1582C51.3277 6.09536 51.3014 6.03463 51.2619 5.92908C51.2246 6.03328 51.2039 6.08497 51.1874 6.13799C50.5489 8.19865 49.9092 10.259 49.2755 12.3211C49.2254 12.4839 49.1513 12.5712 48.9786 12.624C47.0301 13.2198 45.0849 13.8263 43.139 14.4305C42.9595 14.4862 42.781 14.545 42.559 14.6161C42.6657 14.6527 42.7243 14.6745 42.7839 14.693C44.8375 15.3294 46.8905 15.968 48.9463 16.5972C49.1373 16.6556 49.2274 16.7493 49.2845 16.9412C49.5862 17.9546 49.9048 18.963 50.2181 19.973C50.5584 21.0698 50.8993 22.1664 51.2582 23.3222Z" fill="#141414"/>
<path d="M29.0305 48.4672C28.9608 52.9139 27.5409 56.4957 24.5551 59.4023C22.455 61.4466 19.9384 62.7202 17.0464 63.2122C13.5207 63.812 10.1755 63.2719 7.09906 61.4252C3.49691 59.263 1.26059 56.0792 0.371827 51.9811C-0.363224 48.5919 -0.00404704 45.2943 1.57609 42.1984C3.7459 37.9472 7.20913 35.3129 11.9164 34.4855C16.618 33.659 20.8152 34.8616 24.3625 38.0831C26.8696 40.36 28.3476 43.2232 28.849 46.5757C28.9573 47.2996 28.9904 48.0348 29.0305 48.4672ZM14.8399 40.9753C13.3279 40.9819 12.187 41.2439 11.1293 41.8105C7.82496 43.5806 6.20961 47.2254 7.1035 50.8651C8.0342 54.6546 11.7153 57.1713 15.5473 56.638C19.0052 56.1568 21.8345 53.1695 22.1485 49.6711C22.3219 47.7399 21.8705 45.964 20.7606 44.38C19.2506 42.2252 17.1772 41.0634 14.8399 40.9753Z" fill="#141414"/>
<path d="M53.3535 40.228C53.3535 40.3275 53.3535 40.4182 53.3535 40.5088C53.3533 44.3729 53.3499 48.237 53.3551 52.1011C53.3563 52.994 53.4401 53.8795 53.7845 54.7167C54.4068 56.229 56.3711 56.7541 57.6426 55.747C58.2104 55.2973 58.4782 54.6624 58.6034 53.9799C58.7135 53.3789 58.7977 52.7632 58.7991 52.1538C58.8128 46.2906 58.8065 40.4273 58.8059 34.5641C58.8059 34.459 58.8059 34.3538 58.8059 34.2329C61.1154 34.2329 63.4081 34.2329 65.7377 34.2329C65.7377 34.2996 65.7377 34.3734 65.7377 34.4471C65.7374 40.3951 65.7485 46.3432 65.7304 52.2911C65.7241 54.379 65.3184 56.3909 64.2925 58.2364C62.8523 60.8272 60.6429 62.3567 57.7372 62.8741C55.994 63.1844 54.2776 63.0623 52.6189 62.4045C51.5754 61.9907 50.6865 61.3587 49.9798 60.4798C49.9541 60.4478 49.9269 60.4168 49.8956 60.3798C49.6838 60.6081 49.4883 60.8397 49.2713 61.049C48.2425 62.042 46.9936 62.6132 45.6029 62.8534C42.8331 63.3317 40.2617 62.8334 37.9803 61.1422C36.2034 59.8251 35.1361 58.0209 34.5428 55.9165C34.1861 54.6515 34.0342 53.3567 34.0333 52.0455C34.0292 46.2034 34.031 40.3614 34.0306 34.5193C34.0306 34.4288 34.0306 34.3382 34.0306 34.2333C36.3452 34.2333 38.6434 34.2333 40.9684 34.2333C40.9684 34.329 40.9684 34.4186 40.9684 34.5082C40.968 40.3926 40.9666 46.277 40.9684 52.1615C40.9686 52.9626 41.0506 53.7543 41.3162 54.517C41.8624 56.086 43.5906 56.7433 45.0056 55.9164C45.6383 55.5466 45.9513 54.9446 46.1465 54.2705C46.3483 53.5739 46.4152 52.8577 46.4153 52.1349C46.416 48.2638 46.4152 44.3926 46.415 40.5215C46.415 40.4301 46.415 40.3386 46.415 40.228C48.725 40.228 51.0229 40.228 53.3535 40.228Z" fill="#141414"/>
<path d="M74.2818 24.192C73.8338 24.192 73.4898 24.064 73.2498 23.808C73.0098 23.552 72.8898 23.2 72.8898 22.752V8.328C72.8898 7.864 73.0178 7.512 73.2738 7.272C73.5298 7.016 73.8818 6.888 74.3298 6.888C74.7298 6.888 75.0418 6.968 75.2658 7.128C75.5058 7.272 75.7218 7.528 75.9138 7.896L81.8418 18.864H81.0738L87.0018 7.896C87.1938 7.528 87.4018 7.272 87.6258 7.128C87.8498 6.968 88.1618 6.888 88.5618 6.888C89.0098 6.888 89.3538 7.016 89.5938 7.272C89.8338 7.512 89.9538 7.864 89.9538 8.328V22.752C89.9538 23.2 89.8338 23.552 89.5938 23.808C89.3698 24.064 89.0258 24.192 88.5618 24.192C88.1138 24.192 87.7698 24.064 87.5298 23.808C87.2898 23.552 87.1698 23.2 87.1698 22.752V11.64H87.6978L82.6578 20.832C82.4978 21.104 82.3298 21.304 82.1538 21.432C81.9778 21.56 81.7378 21.624 81.4338 21.624C81.1298 21.624 80.8818 21.56 80.6898 21.432C80.4978 21.288 80.3298 21.088 80.1858 20.832L75.0978 11.616H75.6738V22.752C75.6738 23.2 75.5538 23.552 75.3138 23.808C75.0898 24.064 74.7458 24.192 74.2818 24.192ZM101.262 24.24C99.6298 24.24 98.1978 23.88 96.9658 23.16C95.7498 22.44 94.8058 21.432 94.1338 20.136C93.4618 18.824 93.1258 17.288 93.1258 15.528C93.1258 14.2 93.3178 13.008 93.7018 11.952C94.0858 10.88 94.6298 9.968 95.3338 9.216C96.0538 8.448 96.9098 7.864 97.9018 7.464C98.9098 7.048 100.03 6.84 101.262 6.84C102.91 6.84 104.342 7.2 105.558 7.92C106.774 8.624 107.718 9.624 108.39 10.92C109.062 12.216 109.398 13.744 109.398 15.504C109.398 16.832 109.206 18.032 108.822 19.104C108.438 20.176 107.886 21.096 107.166 21.864C106.462 22.632 105.606 23.224 104.598 23.64C103.606 24.04 102.494 24.24 101.262 24.24ZM101.262 21.6C102.302 21.6 103.182 21.36 103.902 20.88C104.638 20.4 105.198 19.704 105.582 18.792C105.982 17.88 106.182 16.792 106.182 15.528C106.182 13.608 105.75 12.12 104.886 11.064C104.038 10.008 102.83 9.48 101.262 9.48C100.238 9.48 99.3578 9.72 98.6218 10.2C97.8858 10.664 97.3178 11.352 96.9178 12.264C96.5338 13.16 96.3418 14.248 96.3418 15.528C96.3418 17.432 96.7738 18.92 97.6378 19.992C98.5018 21.064 99.7098 21.6 101.262 21.6ZM120.106 24.24C118.474 24.24 117.042 23.88 115.81 23.16C114.594 22.44 113.65 21.432 112.978 20.136C112.306 18.824 111.97 17.288 111.97 15.528C111.97 14.2 112.162 13.008 112.546 11.952C112.93 10.88 113.474 9.968 114.178 9.216C114.898 8.448 115.754 7.864 116.746 7.464C117.754 7.048 118.874 6.84 120.106 6.84C121.754 6.84 123.186 7.2 124.402 7.92C125.618 8.624 126.562 9.624 127.234 10.92C127.906 12.216 128.242 13.744 128.242 15.504C128.242 16.832 128.05 18.032 127.666 19.104C127.282 20.176 126.73 21.096 126.01 21.864C125.306 22.632 124.45 23.224 123.442 23.64C122.45 24.04 121.338 24.24 120.106 24.24ZM120.106 21.6C121.146 21.6 122.026 21.36 122.746 20.88C123.482 20.4 124.042 19.704 124.426 18.792C124.826 17.88 125.026 16.792 125.026 15.528C125.026 13.608 124.594 12.12 123.73 11.064C122.882 10.008 121.674 9.48 120.106 9.48C119.082 9.48 118.202 9.72 117.466 10.2C116.73 10.664 116.162 11.352 115.762 12.264C115.378 13.16 115.186 14.248 115.186 15.528C115.186 17.432 115.618 18.92 116.482 19.992C117.346 21.064 118.554 21.6 120.106 21.6ZM136.895 24.192C136.463 24.192 136.111 24.088 135.839 23.88C135.583 23.672 135.375 23.344 135.215 22.896L130.199 8.712C130.023 8.2 130.055 7.768 130.295 7.416C130.551 7.064 130.975 6.888 131.567 6.888C131.999 6.888 132.335 6.992 132.575 7.2C132.815 7.392 133.007 7.704 133.151 8.136L137.471 20.952H136.511L141.023 8.16C141.183 7.728 141.383 7.408 141.623 7.2C141.863 6.992 142.175 6.888 142.559 6.888C142.943 6.888 143.247 6.992 143.471 7.2C143.695 7.408 143.887 7.736 144.047 8.184L148.415 20.952H147.575L151.967 8.136C152.111 7.72 152.303 7.408 152.543 7.2C152.783 6.992 153.111 6.888 153.527 6.888C154.039 6.888 154.415 7.064 154.655 7.416C154.895 7.768 154.927 8.2 154.751 8.712L149.687 22.92C149.527 23.352 149.319 23.672 149.063 23.88C148.807 24.088 148.463 24.192 148.031 24.192C147.599 24.192 147.255 24.088 146.999 23.88C146.743 23.672 146.535 23.344 146.375 22.896L142.199 10.992H142.751L138.527 22.92C138.367 23.352 138.159 23.672 137.903 23.88C137.663 24.088 137.327 24.192 136.895 24.192Z" fill="black"/>
<path d="M72.0018 44.098C71.8525 44.098 71.7312 44.0653 71.6378 44C71.5538 43.9253 71.5025 43.832 71.4838 43.72C71.4745 43.5987 71.5025 43.4633 71.5678 43.314L75.4178 34.55C75.5018 34.3633 75.5998 34.2327 75.7118 34.158C75.8332 34.074 75.9638 34.032 76.1038 34.032C76.2438 34.032 76.3698 34.074 76.4818 34.158C76.6032 34.2327 76.7012 34.3633 76.7758 34.55L80.6398 43.314C80.7145 43.4633 80.7425 43.5987 80.7238 43.72C80.7145 43.8413 80.6678 43.9347 80.5838 44C80.4998 44.0653 80.3832 44.098 80.2338 44.098C80.0658 44.098 79.9305 44.056 79.8278 43.972C79.7252 43.8787 79.6412 43.748 79.5758 43.58L78.5398 41.186L79.0998 41.48H73.0798L73.6538 41.186L72.6318 43.58C72.5478 43.7573 72.4592 43.888 72.3658 43.972C72.2725 44.056 72.1512 44.098 72.0018 44.098ZM76.0898 35.474L73.8358 40.78L73.4998 40.514H78.6798L78.3718 40.78L76.1178 35.474H76.0898ZM82.0747 45.918C81.9161 45.918 81.7947 45.8713 81.7107 45.778C81.6267 45.6847 81.5847 45.554 81.5847 45.386V43.65C81.5847 43.2767 81.7714 43.09 82.1447 43.09H82.8167L82.1447 43.328C82.3967 42.992 82.5974 42.628 82.7467 42.236C82.9054 41.8347 83.0221 41.3867 83.0967 40.892C83.1714 40.3973 83.2087 39.8327 83.2087 39.198V37.84C83.2087 37.6253 83.2647 37.4667 83.3767 37.364C83.4887 37.252 83.6474 37.196 83.8527 37.196H87.3807C87.5954 37.196 87.7541 37.252 87.8567 37.364C87.9687 37.4667 88.0247 37.6253 88.0247 37.84V43.608L87.5067 43.09H88.5427C88.7201 43.09 88.8554 43.1367 88.9487 43.23C89.0514 43.3233 89.1027 43.4633 89.1027 43.65V45.386C89.1027 45.7407 88.9394 45.918 88.6127 45.918C88.4541 45.918 88.3327 45.8713 88.2487 45.778C88.1647 45.6847 88.1227 45.554 88.1227 45.386V44H82.5507V45.386C82.5507 45.7407 82.3921 45.918 82.0747 45.918ZM83.3907 43.09H86.9467V38.092H84.2167V39.394C84.2167 40.094 84.1467 40.7707 84.0067 41.424C83.8667 42.068 83.6614 42.6233 83.3907 43.09ZM91.1159 44.098C90.9572 44.098 90.8312 44.0513 90.7379 43.958C90.6539 43.8553 90.6119 43.72 90.6119 43.552V37.7C90.6119 37.5693 90.6305 37.462 90.6679 37.378C90.7052 37.2847 90.7612 37.2147 90.8359 37.168C90.9105 37.1213 91.0039 37.098 91.1159 37.098C91.2279 37.098 91.3212 37.1167 91.3959 37.154C91.4705 37.182 91.5359 37.2287 91.5919 37.294C91.6479 37.35 91.6945 37.42 91.7319 37.504L94.1119 41.746L96.4919 37.504C96.5292 37.42 96.5759 37.35 96.6319 37.294C96.6879 37.2287 96.7532 37.182 96.8279 37.154C96.9025 37.1167 96.9912 37.098 97.0939 37.098C97.2619 37.098 97.3879 37.1493 97.4719 37.252C97.5559 37.3453 97.5979 37.4947 97.5979 37.7V43.552C97.5979 43.72 97.5559 43.8553 97.4719 43.958C97.3879 44.0513 97.2619 44.098 97.0939 44.098C96.9352 44.098 96.8092 44.0513 96.7159 43.958C96.6319 43.8553 96.5899 43.72 96.5899 43.552V38.498H96.9119L94.5179 42.698C94.4805 42.7727 94.4292 42.838 94.3639 42.894C94.2985 42.9407 94.2145 42.964 94.1119 42.964C93.9999 42.964 93.9112 42.936 93.8459 42.88C93.7899 42.824 93.7385 42.7633 93.6919 42.698L91.2979 38.498H91.6199V43.552C91.6199 43.72 91.5732 43.8553 91.4799 43.958C91.3959 44.0513 91.2745 44.098 91.1159 44.098ZM100.414 44.07C100.228 44.07 100.088 44.0187 99.9944 43.916C99.9011 43.804 99.8544 43.65 99.8544 43.454V37.728C99.8544 37.532 99.9011 37.3827 99.9944 37.28C100.088 37.1773 100.228 37.126 100.414 37.126C100.592 37.126 100.732 37.1773 100.834 37.28C100.937 37.3827 100.988 37.532 100.988 37.728V43.454C100.988 43.65 100.937 43.804 100.834 43.916C100.741 44.0187 100.601 44.07 100.414 44.07ZM100.414 35.558C100.181 35.558 99.9991 35.4973 99.8684 35.376C99.7377 35.2453 99.6724 35.0727 99.6724 34.858C99.6724 34.634 99.7377 34.466 99.8684 34.354C99.9991 34.2327 100.181 34.172 100.414 34.172C100.657 34.172 100.839 34.2327 100.96 34.354C101.091 34.466 101.156 34.634 101.156 34.858C101.156 35.0727 101.091 35.2453 100.96 35.376C100.839 35.4973 100.657 35.558 100.414 35.558ZM103.805 44.098C103.618 44.098 103.474 44.0467 103.371 43.944C103.278 43.8413 103.231 43.6967 103.231 43.51V37.672C103.231 37.476 103.278 37.3313 103.371 37.238C103.474 37.1447 103.618 37.098 103.805 37.098C103.982 37.098 104.118 37.1447 104.211 37.238C104.314 37.3313 104.365 37.476 104.365 37.672V40.024H108.075V37.672C108.075 37.476 108.122 37.3313 108.215 37.238C108.318 37.1447 108.458 37.098 108.635 37.098C108.812 37.098 108.952 37.1447 109.055 37.238C109.158 37.3313 109.209 37.476 109.209 37.672V43.51C109.209 43.6967 109.158 43.8413 109.055 43.944C108.952 44.0467 108.812 44.098 108.635 44.098C108.458 44.098 108.318 44.0467 108.215 43.944C108.122 43.8413 108.075 43.6967 108.075 43.51V40.948H104.365V43.51C104.365 43.6967 104.318 43.8413 104.225 43.944C104.132 44.0467 103.992 44.098 103.805 44.098ZM112.022 44.07C111.835 44.07 111.695 44.0187 111.602 43.916C111.508 43.804 111.462 43.65 111.462 43.454V37.728C111.462 37.532 111.508 37.3827 111.602 37.28C111.695 37.1773 111.835 37.126 112.022 37.126C112.199 37.126 112.339 37.1773 112.442 37.28C112.544 37.3827 112.596 37.532 112.596 37.728V43.454C112.596 43.65 112.544 43.804 112.442 43.916C112.348 44.0187 112.208 44.07 112.022 44.07ZM112.022 35.558C111.788 35.558 111.606 35.4973 111.476 35.376C111.345 35.2453 111.28 35.0727 111.28 34.858C111.28 34.634 111.345 34.466 111.476 34.354C111.606 34.2327 111.788 34.172 112.022 34.172C112.264 34.172 112.446 34.2327 112.568 34.354C112.698 34.466 112.764 34.634 112.764 34.858C112.764 35.0727 112.698 35.2453 112.568 35.376C112.446 35.4973 112.264 35.558 112.022 35.558ZM117.736 44.126C117.055 44.126 116.467 43.9767 115.972 43.678C115.478 43.3793 115.095 42.964 114.824 42.432C114.563 41.8907 114.432 41.2653 114.432 40.556C114.432 40.0147 114.507 39.5293 114.656 39.1C114.806 38.6707 115.025 38.3067 115.314 38.008C115.604 37.7 115.949 37.4667 116.35 37.308C116.761 37.1493 117.223 37.07 117.736 37.07C118.072 37.07 118.422 37.1213 118.786 37.224C119.15 37.3267 119.482 37.504 119.78 37.756C119.874 37.8213 119.934 37.9007 119.962 37.994C119.99 38.0873 119.99 38.1807 119.962 38.274C119.934 38.358 119.888 38.4327 119.822 38.498C119.757 38.554 119.673 38.5867 119.57 38.596C119.477 38.6053 119.379 38.5727 119.276 38.498C119.034 38.3113 118.786 38.1807 118.534 38.106C118.282 38.0313 118.04 37.994 117.806 37.994C117.442 37.994 117.125 38.0547 116.854 38.176C116.584 38.288 116.355 38.4513 116.168 38.666C115.982 38.8807 115.837 39.1467 115.734 39.464C115.641 39.7813 115.594 40.15 115.594 40.57C115.594 41.382 115.786 42.026 116.168 42.502C116.551 42.9687 117.097 43.202 117.806 43.202C118.04 43.202 118.278 43.1647 118.52 43.09C118.772 43.0153 119.024 42.8847 119.276 42.698C119.379 42.6233 119.477 42.5907 119.57 42.6C119.664 42.6093 119.743 42.6467 119.808 42.712C119.874 42.768 119.916 42.8427 119.934 42.936C119.962 43.0293 119.962 43.1227 119.934 43.216C119.906 43.3 119.846 43.3747 119.752 43.44C119.454 43.6827 119.127 43.86 118.772 43.972C118.418 44.0747 118.072 44.126 117.736 44.126ZM123.444 44.098C123.266 44.098 123.126 44.0467 123.024 43.944C122.921 43.8413 122.87 43.6967 122.87 43.51V38.106H120.826C120.471 38.106 120.294 37.952 120.294 37.644C120.294 37.504 120.34 37.3967 120.434 37.322C120.527 37.238 120.658 37.196 120.826 37.196H126.062C126.407 37.196 126.58 37.3453 126.58 37.644C126.58 37.7933 126.533 37.91 126.44 37.994C126.356 38.0687 126.23 38.106 126.062 38.106H124.004V43.51C124.004 43.6967 123.957 43.8413 123.864 43.944C123.78 44.0467 123.64 44.098 123.444 44.098ZM128.25 46.618C128.064 46.618 127.924 46.5667 127.83 46.464C127.737 46.3707 127.69 46.2307 127.69 46.044V37.672C127.69 37.4853 127.737 37.3453 127.83 37.252C127.924 37.1493 128.059 37.098 128.236 37.098C128.423 37.098 128.563 37.1493 128.656 37.252C128.759 37.3453 128.81 37.4853 128.81 37.672V39.002L128.656 38.806C128.806 38.274 129.1 37.854 129.538 37.546C129.986 37.2287 130.518 37.07 131.134 37.07C131.741 37.07 132.268 37.2147 132.716 37.504C133.174 37.784 133.524 38.19 133.766 38.722C134.018 39.2447 134.144 39.87 134.144 40.598C134.144 41.3167 134.018 41.942 133.766 42.474C133.524 42.9967 133.178 43.4027 132.73 43.692C132.282 43.9813 131.75 44.126 131.134 44.126C130.518 44.126 129.991 43.972 129.552 43.664C129.114 43.3467 128.815 42.9267 128.656 42.404H128.824V46.044C128.824 46.2307 128.773 46.3707 128.67 46.464C128.568 46.5667 128.428 46.618 128.25 46.618ZM130.896 43.216C131.326 43.216 131.694 43.1133 132.002 42.908C132.32 42.7027 132.562 42.404 132.73 42.012C132.908 41.62 132.996 41.1487 132.996 40.598C132.996 39.7487 132.805 39.1 132.422 38.652C132.049 38.204 131.54 37.98 130.896 37.98C130.476 37.98 130.108 38.0827 129.79 38.288C129.473 38.484 129.226 38.778 129.048 39.17C128.88 39.5527 128.796 40.0287 128.796 40.598C128.796 41.438 128.988 42.0867 129.37 42.544C129.753 42.992 130.262 43.216 130.896 43.216ZM138.131 44.126C137.664 44.126 137.244 44.0373 136.871 43.86C136.507 43.6733 136.218 43.4213 136.003 43.104C135.788 42.7867 135.681 42.432 135.681 42.04C135.681 41.536 135.807 41.1393 136.059 40.85C136.32 40.5607 136.745 40.3553 137.333 40.234C137.93 40.1127 138.742 40.052 139.769 40.052H140.399V40.794H139.783C139.027 40.794 138.43 40.8313 137.991 40.906C137.562 40.9713 137.258 41.088 137.081 41.256C136.913 41.424 136.829 41.662 136.829 41.97C136.829 42.3527 136.96 42.6653 137.221 42.908C137.492 43.1507 137.856 43.272 138.313 43.272C138.686 43.272 139.013 43.1833 139.293 43.006C139.582 42.8287 139.806 42.586 139.965 42.278C140.133 41.97 140.217 41.6153 140.217 41.214V39.618C140.217 39.0393 140.1 38.624 139.867 38.372C139.634 38.1107 139.251 37.98 138.719 37.98C138.392 37.98 138.066 38.022 137.739 38.106C137.412 38.19 137.067 38.3253 136.703 38.512C136.572 38.5773 136.46 38.6007 136.367 38.582C136.274 38.554 136.199 38.5027 136.143 38.428C136.087 38.3533 136.054 38.2693 136.045 38.176C136.036 38.0733 136.054 37.9753 136.101 37.882C136.157 37.7887 136.241 37.714 136.353 37.658C136.764 37.4527 137.17 37.3033 137.571 37.21C137.972 37.1167 138.355 37.07 138.719 37.07C139.307 37.07 139.792 37.168 140.175 37.364C140.558 37.5507 140.842 37.84 141.029 38.232C141.216 38.6147 141.309 39.1093 141.309 39.716V43.51C141.309 43.6967 141.262 43.8413 141.169 43.944C141.085 44.0467 140.959 44.098 140.791 44.098C140.614 44.098 140.478 44.0467 140.385 43.944C140.292 43.8413 140.245 43.6967 140.245 43.51V42.418H140.371C140.296 42.7727 140.152 43.076 139.937 43.328C139.732 43.58 139.475 43.776 139.167 43.916C138.859 44.056 138.514 44.126 138.131 44.126ZM145.51 44.098C145.333 44.098 145.193 44.0467 145.09 43.944C144.987 43.8413 144.936 43.6967 144.936 43.51V38.106H142.892C142.537 38.106 142.36 37.952 142.36 37.644C142.36 37.504 142.407 37.3967 142.5 37.322C142.593 37.238 142.724 37.196 142.892 37.196H148.128C148.473 37.196 148.646 37.3453 148.646 37.644C148.646 37.7933 148.599 37.91 148.506 37.994C148.422 38.0687 148.296 38.106 148.128 38.106H146.07V43.51C146.07 43.6967 146.023 43.8413 145.93 43.944C145.846 44.0467 145.706 44.098 145.51 44.098ZM152.557 44.126C151.895 44.126 151.321 43.9813 150.835 43.692C150.35 43.4027 149.972 42.9967 149.701 42.474C149.44 41.942 149.309 41.3167 149.309 40.598C149.309 40.0567 149.384 39.5713 149.533 39.142C149.683 38.7033 149.902 38.33 150.191 38.022C150.481 37.714 150.821 37.4807 151.213 37.322C151.615 37.154 152.063 37.07 152.557 37.07C153.22 37.07 153.794 37.2147 154.279 37.504C154.765 37.7933 155.138 38.204 155.399 38.736C155.67 39.2587 155.805 39.8793 155.805 40.598C155.805 41.1393 155.731 41.6247 155.581 42.054C155.432 42.4833 155.213 42.8567 154.923 43.174C154.634 43.482 154.289 43.72 153.887 43.888C153.495 44.0467 153.052 44.126 152.557 44.126ZM152.557 43.216C152.977 43.216 153.346 43.1133 153.663 42.908C153.981 42.7027 154.223 42.404 154.391 42.012C154.569 41.62 154.657 41.1487 154.657 40.598C154.657 39.7487 154.466 39.1 154.083 38.652C153.71 38.204 153.201 37.98 152.557 37.98C152.128 37.98 151.755 38.0827 151.437 38.288C151.129 38.484 150.887 38.778 150.709 39.17C150.541 39.5527 150.457 40.0287 150.457 40.598C150.457 41.438 150.649 42.0867 151.031 42.544C151.414 42.992 151.923 43.216 152.557 43.216ZM158.219 46.618C158.032 46.618 157.892 46.5667 157.799 46.464C157.706 46.3707 157.659 46.2307 157.659 46.044V37.672C157.659 37.4853 157.706 37.3453 157.799 37.252C157.892 37.1493 158.028 37.098 158.205 37.098C158.392 37.098 158.532 37.1493 158.625 37.252C158.728 37.3453 158.779 37.4853 158.779 37.672V39.002L158.625 38.806C158.774 38.274 159.068 37.854 159.507 37.546C159.955 37.2287 160.487 37.07 161.103 37.07C161.71 37.07 162.237 37.2147 162.685 37.504C163.142 37.784 163.492 38.19 163.735 38.722C163.987 39.2447 164.113 39.87 164.113 40.598C164.113 41.3167 163.987 41.942 163.735 42.474C163.492 42.9967 163.147 43.4027 162.699 43.692C162.251 43.9813 161.719 44.126 161.103 44.126C160.487 44.126 159.96 43.972 159.521 43.664C159.082 43.3467 158.784 42.9267 158.625 42.404H158.793V46.044C158.793 46.2307 158.742 46.3707 158.639 46.464C158.536 46.5667 158.396 46.618 158.219 46.618ZM160.865 43.216C161.294 43.216 161.663 43.1133 161.971 42.908C162.288 42.7027 162.531 42.404 162.699 42.012C162.876 41.62 162.965 41.1487 162.965 40.598C162.965 39.7487 162.774 39.1 162.391 38.652C162.018 38.204 161.509 37.98 160.865 37.98C160.445 37.98 160.076 38.0827 159.759 38.288C159.442 38.484 159.194 38.778 159.017 39.17C158.849 39.5527 158.765 40.0287 158.765 40.598C158.765 41.438 158.956 42.0867 159.339 42.544C159.722 42.992 160.23 43.216 160.865 43.216Z" fill="#665CD1"/>
</svg>
