<svg width="14" height="14" viewBox="0 0 14 14" fill="none" xmlns="http://www.w3.org/2000/svg">
<path d="M1.68003 4.15334C1.3942 4.43918 1.3942 4.90001 1.68003 5.18584L6.58586 10.0917C6.63983 10.1458 6.70393 10.1887 6.7745 10.2179C6.84507 10.2472 6.92071 10.2623 6.99711 10.2623C7.07351 10.2623 7.14916 10.2472 7.21973 10.2179C7.29029 10.1887 7.3544 10.1458 7.40836 10.0917L12.32 5.18001C12.6 4.90001 12.6 4.43334 12.32 4.15334C12.2523 4.08544 12.1718 4.03156 12.0832 3.9948C11.9947 3.95804 11.8997 3.93912 11.8038 3.93912C11.7079 3.93912 11.6129 3.95804 11.5243 3.9948C11.4357 4.03156 11.3553 4.08544 11.2875 4.15334L7.00003 8.43501L2.71253 4.14751C2.4267 3.86751 1.96586 3.86751 1.68003 4.15334Z" fill="#1A141F"/>
</svg>
