<svg width="101" height="22" viewBox="0 0 101 22" fill="none" xmlns="http://www.w3.org/2000/svg">
<path d="M14.5015 21.83C12.7615 21.83 11.0399 21.83 9.30197 21.83C9.30197 21.7547 9.30197 21.6878 9.30197 21.6209C9.30172 17.2467 9.30232 12.8726 9.30027 8.49839C9.29997 7.86053 9.2499 7.22686 9.03834 6.61872C8.83122 6.02336 8.48036 5.55961 7.83654 5.39103C7.41576 5.28085 6.99246 5.28346 6.57767 5.41782C5.95885 5.61827 5.64018 6.0961 5.44722 6.68006C5.27238 7.20915 5.21204 7.75803 5.21115 8.31081C5.20397 12.7374 5.20236 17.164 5.19906 21.5906C5.19901 21.6639 5.19905 21.7373 5.19905 21.8242C3.47029 21.8242 1.74922 21.8242 0.00282512 21.8242C0.00282512 21.7719 0.00282863 21.7166 0.00282473 21.6613C0.00251272 17.2451 -0.0050601 12.8288 0.0059678 8.41262C0.0096495 6.93825 0.251415 5.50149 0.910539 4.16531C1.9734 2.01068 3.70405 0.731348 6.06759 0.324731C7.377 0.0994637 8.66535 0.199576 9.9052 0.706891C10.6777 1.02297 11.3365 1.49816 11.8533 2.16028C11.8663 2.17683 11.8788 2.19371 11.8706 2.18295C12.1974 1.88488 12.4985 1.56714 12.8423 1.30529C13.653 0.687742 14.5944 0.382248 15.5963 0.270686C17.2361 0.088076 18.7906 0.368668 20.2198 1.21551C21.7644 2.1308 22.7462 3.49319 23.3025 5.18033C23.6241 6.15568 23.7857 7.16121 23.7882 8.18554C23.7993 12.6909 23.7986 17.1963 23.8019 21.7017C23.802 21.7381 23.799 21.7744 23.7967 21.8249C22.072 21.8249 20.3511 21.8249 18.6029 21.8249C18.6029 21.7612 18.6029 21.6904 18.6029 21.6196C18.6026 17.2665 18.6039 12.9134 18.6002 8.56022C18.5997 7.95549 18.5697 7.3489 18.3787 6.76927C18.2926 6.50806 18.1789 6.2456 18.0257 6.01889C17.6343 5.43986 17.0415 5.27723 16.3817 5.32633C15.4838 5.39315 14.9467 5.8877 14.6922 6.84727C14.5511 7.37939 14.5031 7.92267 14.5029 8.47054C14.5014 12.85 14.5018 17.2294 14.5015 21.6088C14.5015 21.6768 14.5015 21.7447 14.5015 21.83Z" fill="#0E0E0E"/>
<path d="M49.2488 11.5267C49.2146 14.0002 48.1699 16.649 45.9801 18.8094C44.4352 20.3336 42.5782 21.288 40.442 21.6791C38.0967 22.1084 35.8354 21.8279 33.6905 20.7786C31.575 19.7437 29.978 18.1609 28.8915 16.0716C27.9873 14.3328 27.587 12.4739 27.672 10.5209C27.7918 7.76796 28.7794 5.36608 30.6988 3.37575C32.4023 1.60931 34.4854 0.562078 36.9164 0.226822C39.1297 -0.0784142 41.2527 0.241255 43.2587 1.23603C45.332 2.26417 46.915 3.80868 48.0018 5.85213C48.8463 7.44011 49.2537 9.1397 49.2488 11.5267ZM38.2819 17.4732C38.3164 17.3784 38.3359 17.3311 38.351 17.2824C38.8256 15.7486 39.3007 14.2151 39.7716 12.6802C39.8043 12.5738 39.8536 12.5177 39.9636 12.4842C40.9373 12.1878 41.9091 11.8847 42.8812 11.583C43.4965 11.3921 44.1116 11.2001 44.7548 10.9999C44.6756 10.9695 44.6241 10.9462 44.5705 10.9295C43.0372 10.4535 41.5042 9.97652 39.9692 9.50622C39.852 9.47032 39.804 9.41109 39.7701 9.30055C39.2988 7.76584 38.8232 6.23249 38.3481 4.69895C38.3336 4.65218 38.3141 4.60699 38.2847 4.52844C38.2569 4.60598 38.2415 4.64445 38.2292 4.68391C37.754 6.21755 37.2779 7.75093 36.8062 9.28568C36.769 9.40685 36.7139 9.4718 36.5853 9.51109C35.1352 9.9545 33.6875 10.4059 32.2392 10.8556C32.1056 10.897 31.9728 10.9408 31.8075 10.9937C31.887 11.021 31.9306 11.0372 31.9749 11.051C33.5033 11.5246 35.0312 11.9999 36.5613 12.4682C36.7034 12.5117 36.7705 12.5813 36.813 12.7242C37.0376 13.4784 37.2746 14.2289 37.5078 14.9806C37.761 15.7969 38.0148 16.6131 38.2819 17.4732Z" fill="#0E0E0E"/>
<path d="M91.7807 4.72935C91.7807 4.80338 91.7807 4.87086 91.7807 4.93834C91.7806 7.81418 91.7781 10.69 91.782 13.5659C91.7829 14.2304 91.8452 14.8894 92.1016 15.5125C92.5646 16.638 94.0266 17.0289 94.9729 16.2793C95.3955 15.9447 95.5948 15.4722 95.688 14.9642C95.7699 14.5169 95.8326 14.0586 95.8336 13.6051C95.8438 9.24139 95.8391 4.87767 95.8387 0.513965C95.8387 0.435735 95.8387 0.357505 95.8387 0.267502C97.5575 0.267502 99.2639 0.267502 100.998 0.267502C100.998 0.317135 100.998 0.372026 100.998 0.426917C100.997 4.85371 101.006 9.28054 100.992 13.7073C100.988 15.2612 100.686 16.7585 99.9221 18.1321C98.8502 20.0603 97.2059 21.1986 95.0433 21.5836C93.7459 21.8146 92.4685 21.7237 91.234 21.2342C90.4574 20.9262 89.7958 20.4558 89.2699 19.8017C89.2507 19.7779 89.2305 19.7549 89.2072 19.7273C89.0496 19.8972 88.9041 20.0695 88.7426 20.2254C87.9769 20.9644 87.0474 21.3895 86.0124 21.5683C83.9509 21.9242 82.0372 21.5534 80.3392 20.2947C79.0168 19.3145 78.2225 17.9717 77.7809 16.4055C77.5155 15.464 77.4024 14.5004 77.4017 13.5245C77.3987 9.17653 77.4 4.82859 77.3997 0.480656C77.3997 0.413267 77.3997 0.345878 77.3997 0.26777C79.1224 0.26777 80.8328 0.26777 82.5632 0.26777C82.5632 0.339039 82.5632 0.4057 82.5632 0.472362C82.5629 4.85184 82.5618 9.23132 82.5631 13.6108C82.5633 14.2071 82.6243 14.7963 82.822 15.3639C83.2285 16.5316 84.5147 17.0208 85.5679 16.4054C86.0387 16.1302 86.2716 15.6821 86.417 15.1804C86.5671 14.662 86.6169 14.129 86.617 13.5911C86.6175 10.71 86.617 7.82887 86.6168 4.94777C86.6168 4.87972 86.6168 4.81166 86.6168 4.72935C88.336 4.72935 90.0462 4.72935 91.7807 4.72935Z" fill="#0E0E0E"/>
<path d="M74.158 10.7364C74.1061 14.0458 73.0493 16.7115 70.8271 18.8748C69.2642 20.3963 67.3912 21.3441 65.2388 21.7103C62.6148 22.1567 60.1251 21.7547 57.8355 20.3804C55.1546 18.7711 53.4902 16.4016 52.8288 13.3516C52.2817 10.8291 52.549 8.37497 53.7251 6.07083C55.3399 2.90684 57.9174 0.946308 61.4208 0.330478C64.92 -0.284613 68.0438 0.610451 70.6838 3.00802C72.5497 4.70257 73.6497 6.83351 74.0229 9.32859C74.1035 9.86737 74.1281 10.4145 74.158 10.7364ZM63.5966 5.16052C62.4713 5.16547 61.6222 5.36047 60.835 5.78216C58.3758 7.0995 57.1735 9.81219 57.8388 12.521C58.5315 15.3413 61.2712 17.2144 64.1231 16.8175C66.6967 16.4593 68.8023 14.236 69.0361 11.6324C69.1651 10.1951 68.8292 8.87334 68.0031 7.69446C66.8793 6.09074 65.3361 5.22608 63.5966 5.16052Z" fill="#0E0E0E"/>
</svg>
