<svg width="24" height="24" viewBox="0 0 24 24" fill="none" xmlns="http://www.w3.org/2000/svg">
<path d="M12 7.875C11.5027 7.875 11.0258 7.67746 10.6742 7.32583C10.3225 6.97419 10.125 6.49728 10.125 6C10.125 5.50272 10.3225 5.02581 10.6742 4.67417C11.0258 4.32254 11.5027 4.125 12 4.125C12.4973 4.125 12.9742 4.32254 13.3258 4.67417C13.6775 5.02581 13.875 5.50272 13.875 6C13.875 6.49728 13.6775 6.97419 13.3258 7.32583C12.9742 7.67746 12.4973 7.875 12 7.875ZM12 13.875C11.5027 13.875 11.0258 13.6775 10.6742 13.3258C10.3225 12.9742 10.125 12.4973 10.125 12C10.125 11.5027 10.3225 11.0258 10.6742 10.6742C11.0258 10.3225 11.5027 10.125 12 10.125C12.4973 10.125 12.9742 10.3225 13.3258 10.6742C13.6775 11.0258 13.875 11.5027 13.875 12C13.875 12.4973 13.6775 12.9742 13.3258 13.3258C12.9742 13.6775 12.4973 13.875 12 13.875ZM10.125 18C10.125 18.4973 10.3225 18.9742 10.6742 19.3258C11.0258 19.6775 11.5027 19.875 12 19.875C12.4973 19.875 12.9742 19.6775 13.3258 19.3258C13.6775 18.9742 13.875 18.4973 13.875 18C13.875 17.5027 13.6775 17.0258 13.3258 16.6742C12.9742 16.3225 12.4973 16.125 12 16.125C11.5027 16.125 11.0258 16.3225 10.6742 16.6742C10.3225 17.0258 10.125 17.5027 10.125 18Z" fill="#ABA7AF"/>
</svg>
