<svg width="24" height="24" viewBox="0 0 24 24" fill="none" xmlns="http://www.w3.org/2000/svg">
<path d="M20.3333 5.33333H16.1666V3.66667C16.1666 3.22464 15.991 2.80072 15.6785 2.48816C15.3659 2.17559 14.942 2 14.5 2H9.49996C9.05793 2 8.63401 2.17559 8.32145 2.48816C8.00889 2.80072 7.83329 3.22464 7.83329 3.66667V5.33333H3.66663V7H5.33329V19.5C5.33329 20.163 5.59668 20.7989 6.06553 21.2678C6.53437 21.7366 7.17025 22 7.83329 22H16.1666C16.8297 22 17.4656 21.7366 17.9344 21.2678C18.4032 20.7989 18.6666 20.163 18.6666 19.5V7H20.3333V5.33333ZM9.49996 3.66667H14.5V5.33333H9.49996V3.66667ZM17 19.5C17 19.721 16.9122 19.933 16.7559 20.0893C16.5996 20.2455 16.3876 20.3333 16.1666 20.3333H7.83329C7.61228 20.3333 7.40032 20.2455 7.24404 20.0893C7.08776 19.933 6.99996 19.721 6.99996 19.5V7H17V19.5Z" fill="#ABA7AF"/>
<path d="M11.1667 10.3328H9.5V16.9995H11.1667V10.3328Z" fill="#ABA7AF"/>
<path d="M14.4999 10.3328H12.8333V16.9995H14.4999V10.3328Z" fill="#ABA7AF"/>
</svg>
