<svg width="8" height="16" viewBox="0 0 8 16" fill="none" xmlns="http://www.w3.org/2000/svg">
<path d="M3.72604 1.47698C3.75662 1.43257 3.79754 1.39625 3.84527 1.37116C3.893 1.34608 3.94612 1.33297 4.00004 1.33297C4.05396 1.33297 4.10708 1.34608 4.15481 1.37116C4.20254 1.39625 4.24346 1.43257 4.27404 1.47698L7.27404 5.81031C7.30877 5.86029 7.32913 5.91884 7.33292 5.97958C7.33671 6.04032 7.32378 6.10094 7.29554 6.15485C7.26729 6.20876 7.22482 6.2539 7.17272 6.28536C7.12062 6.31682 7.0609 6.33341 7.00004 6.33331H1.00004C0.939321 6.33306 0.879819 6.31626 0.827934 6.28472C0.776048 6.25319 0.733741 6.2081 0.705563 6.15431C0.677385 6.10053 0.664402 6.04008 0.66801 5.97947C0.671618 5.91886 0.69168 5.86038 0.72604 5.81031L3.72604 1.47698Z" fill="#ABA7AF"/>
<path d="M3.72604 14.523C3.75662 14.5674 3.79754 14.6037 3.84527 14.6288C3.893 14.6539 3.94612 14.667 4.00004 14.667C4.05396 14.667 4.10708 14.6539 4.15481 14.6288C4.20254 14.6037 4.24346 14.5674 4.27404 14.523L7.27404 10.1897C7.30877 10.1397 7.32913 10.0812 7.33292 10.0204C7.33671 9.95968 7.32378 9.89906 7.29554 9.84515C7.26729 9.79124 7.22482 9.7461 7.17272 9.71464C7.12062 9.68318 7.0609 9.66659 7.00004 9.66669H1.00004C0.939321 9.66694 0.879819 9.68374 0.827934 9.71528C0.776048 9.74681 0.733741 9.7919 0.705563 9.84569C0.677385 9.89947 0.664402 9.95992 0.66801 10.0205C0.671618 10.0811 0.69168 10.1396 0.72604 10.1897L3.72604 14.523Z" fill="#ABA7AF"/>
</svg>
