<svg width="8" height="8" viewBox="0 0 8 8" fill="none" xmlns="http://www.w3.org/2000/svg">
<path d="M3.7261 6.52302C3.75668 6.56743 3.7976 6.60375 3.84533 6.62884C3.89306 6.65392 3.94618 6.66703 4.0001 6.66703C4.05402 6.66703 4.10714 6.65392 4.15487 6.62884C4.2026 6.60375 4.24352 6.56743 4.2741 6.52302L7.2741 2.18969C7.30883 2.13971 7.32919 2.08116 7.33298 2.02042C7.33677 1.95968 7.32384 1.89906 7.2956 1.84515C7.26735 1.79124 7.22488 1.7461 7.17278 1.71464C7.12068 1.68318 7.06096 1.66659 7.0001 1.66669H1.0001C0.939382 1.66694 0.87988 1.68374 0.827995 1.71528C0.776109 1.74681 0.733802 1.7919 0.705624 1.84569C0.677446 1.89947 0.664463 1.95992 0.668071 2.02053C0.671679 2.08114 0.691741 2.13962 0.726101 2.18969L3.7261 6.52302Z" fill="#665CD1"/>
</svg>
